<?xml version="1.0" standalone="no"?>
<!DOCTYPE svg PUBLIC "-//W3C//DTD SVG 20010904//EN"
 "http://www.w3.org/TR/2001/REC-SVG-20010904/DTD/svg10.dtd">
<svg version="1.0" xmlns="http://www.w3.org/2000/svg"
 width="200.000000pt" height="200.000000pt" viewBox="0 0 200.000000 200.000000"
 preserveAspectRatio="xMidYMid meet">
<metadata>
Created by potrace 1.11, written by Peter Selinger 2001-2013
</metadata>
<g transform="translate(0.000000,200.000000) scale(0.100000,-0.100000)"
fill="#000000" stroke="none">
<path d="M795 1894 c-164 -35 -307 -116 -440 -249 -136 -136 -215 -277 -249
-447 -21 -100 -21 -286 0 -386 34 -170 113 -311 249 -447 136 -136 277 -215
447 -249 100 -21 286 -21 386 0 170 34 311 113 447 249 136 136 215 277 249
447 21 100 21 286 0 386 -34 170 -113 311 -249 447 -136 136 -277 215 -447
249 -97 20 -298 20 -393 0z"/>
</g>
</svg>
